<?xml version="1.0" encoding="utf-8"?>
<!-- Generator: Adobe Illustrator 24.1.1, SVG Export Plug-In . SVG Version: 6.00 Build 0)  -->
<svg version="1.1" id="Capa_1" xmlns="http://www.w3.org/2000/svg" xmlns:xlink="http://www.w3.org/1999/xlink" x="0px" y="0px"
	 viewBox="0 0 100 100" style="enable-background:new 0 0 100 100;" xml:space="preserve">
<style type="text/css">
	.st0{stroke:#000000;stroke-miterlimit:10;}
</style>
<path class="st0" d="M75.5,53.5"/>
<path class="st0" d="M14.03,12.25l34.75,17.02c0.29,0.14,0.64,0.14,0.93,0l34.75-17.02C85.18,11.9,86,12.42,86,13.2v15.64
	c0,0.41-0.23,0.78-0.59,0.95L49.72,47.27c-0.29,0.14-0.64,0.14-0.93,0L13.09,29.79c-0.36-0.18-0.59-0.55-0.59-0.95V13.2
	C12.5,12.42,13.32,11.9,14.03,12.25z"/>
<path class="st0" d="M14.44,60.72l34.75,17.02c0.29,0.14,0.64,0.14,0.93,0l34.75-17.02c0.71-0.35,1.53,0.17,1.53,0.95v15.64
	c0,0.41-0.23,0.78-0.59,0.95L50.13,95.74c-0.29,0.14-0.64,0.14-0.93,0L13.5,78.26c-0.36-0.18-0.59-0.55-0.59-0.95V61.67
	C12.91,60.89,13.73,60.37,14.44,60.72z"/>
<path class="st0" d="M14.44,36.72l34.75,17.02c0.29,0.14,0.64,0.14,0.93,0l34.75-17.02c0.71-0.35,1.53,0.17,1.53,0.95v15.64
	c0,0.41-0.23,0.78-0.59,0.95L50.13,71.74c-0.29,0.14-0.64,0.14-0.93,0L13.5,54.26c-0.36-0.18-0.59-0.55-0.59-0.95V37.67
	C12.91,36.89,13.73,36.37,14.44,36.72z"/>
</svg>
