<?xml version="1.0" encoding="UTF-8"?>
<svg width="700pt" height="700pt" version="1.1" viewBox="0 0 700 700" xmlns="http://www.w3.org/2000/svg">
 <path d="m350.02 41.977c-49.266 0-89.523 40.23-89.523 89.496 0 29.836 14.824 56.344 37.406 72.652-45.309 20.043-76.973 65.328-76.973 118.04v51.871c0.16797 7.6133 6.3867 13.695 14 13.695s13.832-6.082 14-13.695v-51.871c0-55.875 44.273-100.56 99.996-101.14 0.37109 0.003906 0.72656 0.058593 1.0938 0.058593 0.37109 0 0.72656-0.058593 1.0938-0.058593 55.719 0.58594 99.969 45.273 99.969 101.14v51.871h-0.003906c0.17188 7.6133 6.3867 13.695 14 13.695s13.832-6.082 14-13.695v-51.871c0-52.719-31.664-98.004-76.973-118.04 22.582-16.309 37.406-42.816 37.406-72.652 0-49.266-40.23-89.496-89.496-89.496zm0 28.027c34.133 0 61.469 27.336 61.469 61.469 0 34.133-27.336 61.605-61.469 61.605s-61.496-27.473-61.496-61.605c0-34.133 27.363-61.469 61.496-61.469zm0.49219 277.95c-6.1289-0.20703-11.68 3.5938-13.699 9.3789l-15.285 43.941-46.484 0.92969c-5.9531 0.125-11.172 3.9961-13.02 9.6562-1.8477 5.6562 0.082031 11.863 4.8164 15.473l37.051 28.082-13.426 44.516c-1.7422 5.707 0.32031 11.891 5.1406 15.406 4.8242 3.5117 11.34 3.5859 16.242 0.17969l38.145-26.578 38.172 26.551c4.8828 3.3984 11.387 3.3398 16.207-0.15234 4.8203-3.4922 6.9062-9.6484 5.2031-15.352l-13.48-44.516 37.078-28.109c4.75-3.6016 6.6992-9.8125 4.8555-15.484-1.8438-5.668-7.0703-9.5508-13.031-9.6719l-46.512-0.95703-15.23-43.914c-1.7344-4.9805-6.1211-8.5625-11.348-9.2695-0.46484-0.058594-0.92969-0.097656-1.3945-0.10938zm-0.51953 56.629 5.25 15.066c1.9219 5.543 7.0977 9.2969 12.961 9.4062l15.969 0.32812-12.742 9.6523c-4.668 3.5469-6.6328 9.625-4.9219 15.23l4.6211 15.312-13.125-9.1602c-4.8008-3.3516-11.184-3.3633-15.996-0.027344l-13.125 9.1328 4.6484-15.258c1.7148-5.6211-0.26172-11.715-4.9492-15.258l-12.688-9.625 15.941-0.32812c5.8516-0.12109 11.012-3.875 12.934-9.4062z"/>
</svg>
