<?xml version="1.0" encoding="UTF-8"?>
<svg width="700pt" height="700pt" version="1.1" viewBox="0 0 700 700" xmlns="http://www.w3.org/2000/svg">
 <g>
  <path d="m362.97 422.98-12.969-39.918-12.969 39.918h-41.98l33.965 24.672-12.965 39.883 33.949-24.641 33.949 24.641-12.965-39.883 33.965-24.672z"/>
  <path d="m250.98 423.76-12.969-39.918-12.984 39.918h-41.965l33.949 24.676-12.949 39.883 33.949-24.641 33.953 24.605-12.969-39.848 33.949-24.676z"/>
  <path d="m516.93 422.98h-41.984l-12.965-39.918-12.969 39.918h-41.965l33.949 24.672-12.969 39.883 33.953-24.641 33.949 24.605-12.949-39.848z"/>
  <path d="m350 229.18c43.418 0 78.75-35.316 78.75-78.75 0-43.398-35.332-78.75-78.75-78.75s-78.75 35.352-78.75 78.75c0 43.434 35.332 78.75 78.75 78.75zm0-140c33.773 0 61.25 27.477 61.25 61.25 0 33.773-27.477 61.25-61.25 61.25s-61.25-27.477-61.25-61.25c0-33.773 27.477-61.25 61.25-61.25z"/>
  <path d="m463.75 342.93c0-36.328-29.785-78.75-113.75-78.75s-113.75 42.422-113.75 78.75v8.75h227.5zm-209.27-8.75c5.5117-32.164 41.773-52.5 95.516-52.5s90.02 20.336 95.516 52.5z"/>
 </g>
</svg>
