<?xml version="1.0" encoding="utf-8"?>
<!-- Generator: Adobe Illustrator 24.1.1, SVG Export Plug-In . SVG Version: 6.00 Build 0)  -->
<svg version="1.1" id="Capa_1" xmlns="http://www.w3.org/2000/svg" xmlns:xlink="http://www.w3.org/1999/xlink" x="0px" y="0px"
	 viewBox="0 0 100 100" style="enable-background:new 0 0 100 100;" xml:space="preserve">
<style type="text/css">
	.st0{stroke:#000000;stroke-miterlimit:10;}
	.st1{fill:none;stroke:#000000;stroke-width:3;stroke-miterlimit:10;}
</style>
<path class="st0" d="M50.6,52.8"/>
<path class="st1" d="M19.7,75.2c0-35.1,61.7-35.1,61.7,0"/>
<circle class="st1" cx="50.6" cy="25.7" r="22.9"/>
<path class="st1" d="M24.9,74.6l4.4,5.1c0.2,0.2,0.5,0.3,0.8,0.3l6.7-0.8c0.7-0.1,1.2,0.7,0.9,1.3l-3.4,5.8c-0.1,0.2-0.2,0.5,0,0.8
	l2.8,6.1c0.3,0.6-0.3,1.4-1,1.2l-6.6-1.5c-0.3-0.1-0.6,0-0.8,0.2l-4.9,4.6c-0.5,0.5-1.4,0.2-1.4-0.6l-0.6-6.7c0-0.3-0.2-0.5-0.4-0.7
	l-5.9-3.3c-0.6-0.4-0.6-1.3,0.1-1.6l6.2-2.7c0.3-0.1,0.4-0.4,0.5-0.6l1.3-6.6C23.5,74.3,24.4,74.1,24.9,74.6z"/>
<path class="st1" d="M77.7,74.2l1.9,6.4c0.1,0.3,0.3,0.5,0.6,0.6l6.3,2.1c0.7,0.2,0.8,1.2,0.2,1.6l-5.5,3.8
	c-0.2,0.2-0.4,0.4-0.4,0.7l0,6.7c0,0.7-0.8,1.1-1.4,0.7l-5.3-4.1c-0.2-0.2-0.5-0.2-0.8-0.1l-6.4,2c-0.7,0.2-1.4-0.4-1.1-1.1l2.3-6.3
	c0.1-0.3,0.1-0.6-0.1-0.8l-3.9-5.4c-0.4-0.6,0-1.4,0.7-1.4l6.7,0.2c0.3,0,0.6-0.1,0.7-0.4l3.9-5.4C76.6,73.3,77.5,73.5,77.7,74.2z"
	/>
<path class="st1" d="M51.7,62.5l4.3,8.8c0.1,0.3,0.4,0.5,0.7,0.5l9.7,1.4c0.7,0.1,1,1,0.5,1.6l-7,6.8c-0.2,0.2-0.3,0.5-0.3,0.8
	l1.7,9.7c0.1,0.7-0.6,1.3-1.3,1l-8.7-4.6c-0.3-0.1-0.6-0.1-0.8,0L41.8,93c-0.7,0.4-1.4-0.2-1.3-1l1.7-9.7c0.1-0.3,0-0.6-0.3-0.8
	l-7-6.8c-0.5-0.5-0.2-1.4,0.5-1.6l9.7-1.4c0.3,0,0.6-0.2,0.7-0.5l4.3-8.8C50.4,61.8,51.4,61.8,51.7,62.5z"/>
</svg>
