<?xml version="1.0" encoding="utf-8"?>
<!-- Generator: Adobe Illustrator 24.1.1, SVG Export Plug-In . SVG Version: 6.00 Build 0)  -->
<svg version="1.1" id="Capa_1" xmlns="http://www.w3.org/2000/svg" xmlns:xlink="http://www.w3.org/1999/xlink" x="0px" y="0px"
	 viewBox="0 0 100 100" style="enable-background:new 0 0 100 100;" xml:space="preserve">
<style type="text/css">
	.st0{display:none;}
	.st1{fill:none;stroke:#FFFFFF;stroke-width:5;stroke-miterlimit:10;}
	.st2{fill:#FFFFFF;stroke:#FFFFFF;stroke-miterlimit:10;}
</style>
<g id="Capa_2_1_" class="st0">
	
		<image style="display:inline;overflow:visible;enable-background:new    ;" width="800" height="800" xlink:href="logo-facebook.jpg"  transform="matrix(0.16 0 0 0.16 -14 -14)">
	</image>
</g>
<g id="Capa_1_1_">
	<circle class="st1" cx="50" cy="50" r="47"/>
	<path class="st2" d="M42.5,82.5v-29h-10v-11h10v-10c0-0.8,0.1-1.6,0.2-2.4c0.3-1.8,0.8-3.6,1.7-5.3c1-2.1,2.5-3.9,4.5-5.2
		c1.2-0.8,2.4-1.3,3.8-1.7c1.9-0.5,3.8-0.5,5.7-0.5c3,0,6.1,0,9.1,0v10h-6c0,0-6,0-6,7v8h11l-1,11h-10v29h-13V82.5z"/>
</g>
</svg>
