<?xml version="1.0" encoding="utf-8"?>
<!-- Generator: Adobe Illustrator 24.1.1, SVG Export Plug-In . SVG Version: 6.00 Build 0)  -->
<svg version="1.1" id="Capa_1" xmlns="http://www.w3.org/2000/svg" xmlns:xlink="http://www.w3.org/1999/xlink" x="0px" y="0px"
	 viewBox="0 0 100 100" style="enable-background:new 0 0 100 100;" xml:space="preserve">
<style type="text/css">
	.st0{display:none;}
	.st1{stroke:#000000;stroke-width:2;stroke-miterlimit:10;}
	.st2{fill:none;stroke:#000000;stroke-width:2;stroke-miterlimit:10;}
	.st3{fill:none;stroke:#000000;stroke-miterlimit:10;}
</style>
<g id="Capa_2_1_" class="st0">
	
		<image style="display:inline;overflow:visible;enable-background:new    ;" width="1384" height="791" xlink:href="6715C3D5.jpg"  transform="matrix(6.958233e-02 0 0 6.958233e-02 -2.4846 -0.4998)">
	</image>
</g>
<path class="st1" d="M39.1,72.9"/>
<rect x="35.2" y="94.1" class="st2" width="28.8" height="4.9"/>
<path class="st2" d="M78.7,45.4H20.6c-1.8,0-3.3,1.5-3.3,3.3v34.2c0,1.9,1.5,3.3,3.3,3.3h58.1c1.8,0,3.3-1.5,3.3-3.3V48.8
	C82.1,46.9,80.5,45.4,78.7,45.4z"/>
<polygon class="st2" points="55.1,86.4 59.3,94.1 39.9,94.1 43.8,86.4 "/>
<line class="st2" x1="17.2" y1="79.2" x2="82.1" y2="79"/>
<line class="st2" x1="46.5" y1="82.8" x2="52.8" y2="82.7"/>
<path class="st3" d="M23.9,27.7"/>
<path class="st3" d="M1.6,21"/>
<path class="st3" d="M18.1,27.6V16.2h1.5L14,9.3c0-0.1-0.1-0.1-0.2,0l-5.4,6.9h1.5v11.2h8.3v0.2H18.1z"/>
<g>
	<path class="st3" d="M4,15.7h5.2l4.1-5.3h-8c-1.1,1.7-2.2,3.5-3.3,5.3C2.7,15.7,3.3,15.7,4,15.7v8.4"/>
</g>
<polygon class="st3" points="24.3,15.7 19.1,15.7 14.8,10.4 23,10.4 26.4,15.7 24.3,15.7 24.4,27.7 "/>
<path class="st3" d="M16,27.6V21c0,0,0-0.1-0.1-0.1h-3.7c0,0-0.1,0-0.1,0.1v6.5H16V27.6z"/>
<path class="st3" d="M7.9,22.8H6c-0.1,0-0.2-0.1-0.2-0.2v-4.3c0-0.1,0.1-0.2,0.2-0.2h2c0.1,0,0.2,0.1,0.2,0.2v4.3
	C8.3,22.6,8.2,22.8,7.9,22.8z"/>
<path class="st3" d="M22.6,22.5v-4.3c0-0.1-0.1-0.2-0.2-0.2h-2.1c-0.1,0-0.2,0.1-0.2,0.2v4.3c0,0.1,0.1,0.2,0.2,0.2h2.1
	C22.4,22.8,22.6,22.6,22.6,22.5z"/>
<path class="st3" d="M1.4,27.6h25.3H1.4z"/>
<g>
	<path class="st3" d="M3.4,26.6c-0.2-0.6-0.2-1.2,0.1-1.7S4.4,24,5,24c0.5,0,1.1,0.1,1.2,0.6"/>
	<path class="st3" d="M5.9,26.6c0,0-0.9-1.7,0.6-2.1c0.2,0,0.5,0,0.6,0.1c0.1-0.2,0.2-0.5,0.5-0.6c0.2-0.1,0.4-0.4,0.6-0.4
		c1-0.4,1.6,0.5,1.6,0.5s0,3,0,3.5H5.9"/>
	<line class="st3" x1="2.7" y1="26.6" x2="10" y2="26.6"/>
</g>
<line class="st3" x1="4.5" y1="12" x2="12" y2="12"/>
<line class="st3" x1="3.3" y1="13.9" x2="10.2" y2="13.9"/>
<line class="st3" x1="23.9" y1="12" x2="16.4" y2="12"/>
<line class="st3" x1="25" y1="13.9" x2="18" y2="13.9"/>
<path class="st3" d="M60.1,19.3"/>
<path class="st3" d="M37.5,19.1"/>
<path class="st3" d="M53.6,19.1V7.7h1.5l-5.6-6.9c0-0.1-0.1-0.1-0.2,0l-5.3,7h1.5V19h8.1V19.1z"/>
<g>
	<path class="st3" d="M39.5,7.2h5.2l4.1-5.3h-8c-1.1,1.7-2.2,3.5-3.3,5.3C38.1,7.2,38.8,7.2,39.5,7.2v8.4"/>
</g>
<polygon class="st3" points="59.8,7.2 54.6,7.2 50.3,2 58.5,2 61.8,7.2 59.8,7.2 59.9,19.3 "/>
<path class="st3" d="M51.5,19.1v-6.5c0,0,0-0.1-0.1-0.1h-3.7c0,0-0.1,0-0.1,0.1v6.5C47.6,19.1,51.5,19.1,51.5,19.1z"/>
<path class="st3" d="M51,9.7c0.1,0,0.1-0.1,0.1-0.1V7.8c0-2-3.1-1.9-3.1,0v1.7c0,0.1,0.1,0.2,0.2,0.2H51z"/>
<path class="st3" d="M43.4,14.4h-2c-0.1,0-0.2-0.1-0.2-0.2V9.7c0-0.1,0.1-0.2,0.2-0.2h2c0.1,0,0.2,0.1,0.2,0.2V14
	C43.8,14.2,43.7,14.4,43.4,14.4z"/>
<path class="st3" d="M58,14V9.7c0-0.1-0.1-0.2-0.2-0.2h-2.1c-0.1,0-0.2,0.1-0.2,0.2V14c0,0.1,0.1,0.2,0.2,0.2h2.1
	C57.9,14.4,58,14.2,58,14z"/>
<path class="st3" d="M37.2,19.1h25.3H37.2z"/>
<g>
	<path class="st3" d="M38.9,18.1c-0.2-0.6-0.2-1.2,0.1-1.7c0.2-0.5,0.9-0.9,1.5-0.9c0.5,0,1.1,0.1,1.2,0.6"/>
	<path class="st3" d="M41.3,18c0,0-0.9-1.7,0.6-2.1c0.2,0,0.5,0,0.6,0.1c0.1-0.2,0.2-0.5,0.5-0.6c0.2-0.1,0.4-0.4,0.6-0.4
		c1-0.4,1.6,0.5,1.6,0.5s0,3,0,3.5H41"/>
	<line class="st3" x1="38" y1="18.2" x2="45.5" y2="18.2"/>
</g>
<line class="st3" x1="40" y1="3.6" x2="47.5" y2="3.6"/>
<line class="st3" x1="38.8" y1="5.5" x2="45.6" y2="5.5"/>
<line class="st3" x1="59.4" y1="3.6" x2="51.8" y2="3.6"/>
<line class="st3" x1="60.5" y1="5.5" x2="53.5" y2="5.5"/>
<path class="st3" d="M94.4,27.3"/>
<path class="st3" d="M72.4,27.1"/>
<path class="st3" d="M89.2,27.1V15.7h1.5L85,8.8c0-0.1-0.1-0.1-0.2,0l-5.3,6.9H81V27h8.2V27.1z"/>
<g>
	<path class="st3" d="M75.1,15.2h5.2l4.1-5.3h-8c-1.1,1.7-2.2,3.5-3.3,5.3C73.7,15.2,74.4,15.2,75.1,15.2v8.4"/>
</g>
<polygon class="st3" points="95.4,15.1 90.2,15.2 85.9,9.9 94.1,9.9 97.4,15.1 95.4,15.1 95.5,27.2 "/>
<path class="st3" d="M87.1,27.1v-6.5c0,0,0-0.1-0.1-0.1h-3.7c0,0-0.1,0-0.1,0.1v6.5C83.2,27.1,87.1,27.1,87.1,27.1z"/>
<path class="st3" d="M79,22.3h-2c-0.1,0-0.2-0.1-0.2-0.2v-4.3c0-0.1,0.1-0.2,0.2-0.2h2c0.1,0,0.2,0.1,0.2,0.2V22
	C79.4,22.1,79.3,22.3,79,22.3z"/>
<path class="st3" d="M93.6,22v-4.3c0-0.1-0.1-0.2-0.2-0.2h-2.1c-0.1,0-0.2,0.1-0.2,0.2V22c0,0.1,0.1,0.2,0.2,0.2h2.1
	C93.5,22.3,93.6,22.1,93.6,22z"/>
<path class="st3" d="M72.2,27.1h25.3H72.2z"/>
<g>
	<path class="st3" d="M74.5,26.1c-0.2-0.6-0.2-1.2,0.1-1.7c0.2-0.5,0.9-0.9,1.5-0.9c0.5,0,1.1,0.1,1.2,0.6"/>
	<path class="st3" d="M76.9,26.1c0,0-0.9-1.7,0.6-2.1c0.2,0,0.5,0,0.6,0.1c0.1-0.2,0.2-0.5,0.5-0.6c0.2-0.1,0.4-0.4,0.6-0.4
		c1-0.4,1.6,0.5,1.6,0.5s0,3,0,3.5h-4.2"/>
	<line class="st3" x1="73.6" y1="26.1" x2="81.1" y2="26.1"/>
</g>
<line class="st3" x1="75.6" y1="11.5" x2="83.1" y2="11.5"/>
<line class="st3" x1="74.4" y1="13.4" x2="81.2" y2="13.4"/>
<line class="st3" x1="95" y1="11.5" x2="87.4" y2="11.5"/>
<line class="st3" x1="96.1" y1="13.4" x2="89.1" y2="13.4"/>
<ellipse class="st2" cx="49.6" cy="35.9" rx="2.2" ry="2.2"/>
<line class="st2" x1="49.6" y1="44.9" x2="49.6" y2="38.2"/>
<path class="st2" d="M51.8,35.9h32.5c0.5,0,1-0.5,1-1v-7.2"/>
<path class="st2" d="M49.7,35.9"/>
<path class="st2" d="M14.1,27.7c0,0,0,4.9,0,7.2c0,0.5,0.5,1,1,1h32.4"/>
<line class="st2" x1="49.7" y1="19.1" x2="49.7" y2="33.6"/>
<path class="st2" d="M85.2,39.9"/>
<path class="st3" d="M48.1,9.7"/>
<path class="st3" d="M15.6,18.2c0.1,0,0.1-0.1,0.1-0.1v-1.7c0-2-3.1-1.9-3.1,0V18c0,0.1,0.1,0.2,0.2,0.2H15.6z"/>
<path class="st3" d="M38.5,24.4"/>
<path class="st3" d="M86.5,17.6c0.1,0,0.1-0.1,0.1-0.1v-1.7c0-2-3.1-1.9-3.1,0v1.7c0,0.1,0.1,0.2,0.2,0.2h2.8V17.6z"/>
</svg>
