<?xml version="1.0" encoding="utf-8"?>
<!-- Generator: Adobe Illustrator 24.1.1, SVG Export Plug-In . SVG Version: 6.00 Build 0)  -->
<svg version="1.1" id="Capa_1" xmlns="http://www.w3.org/2000/svg" xmlns:xlink="http://www.w3.org/1999/xlink" x="0px" y="0px"
	 viewBox="0 0 100 100" style="enable-background:new 0 0 100 100;" xml:space="preserve">
<style type="text/css">
	.st0{display:none;}
	.st1{fill:none;stroke:#FFFFFF;stroke-width:5;stroke-miterlimit:10;}
	.st2{fill:#FFFFFF;stroke:#FFFFFF;stroke-miterlimit:10;}
</style>
<g id="Capa_2_1_" class="st0">
	
		<image style="display:inline;overflow:visible;enable-background:new    ;" width="225" height="225" xlink:href="logo-linkedin.jpg"  transform="matrix(0.4444 0 0 0.4452 0 -0.18)">
	</image>
</g>
<g id="Capa_1_1_">
	<circle class="st1" cx="50" cy="50" r="47"/>
	<rect x="25.5" y="40.5" class="st2" width="10" height="35"/>
	<circle class="st2" cx="30.5" cy="30.5" r="6"/>
	<rect x="42.5" y="40.5" class="st2" width="10" height="35"/>
	<path class="st2" d="M52.5,56c0-7.5,13-8.5,13,0.5v19h10c0-7.1,0-14.2,0-21.3c0-3.6-0.3-7-2.6-9.9c-2.6-3.3-7-4.2-11-3.6
		c-2,0.3-4,1-5.8,2c-0.6,0.3-3.6,2-3.6,2.9C52.5,45.5,52.5,56,52.5,56z"/>
</g>
</svg>
