<?xml version="1.0" encoding="utf-8"?>
<!-- Generator: Adobe Illustrator 24.1.1, SVG Export Plug-In . SVG Version: 6.00 Build 0)  -->
<svg version="1.1" id="Capa_1" xmlns="http://www.w3.org/2000/svg" xmlns:xlink="http://www.w3.org/1999/xlink" x="0px" y="0px"
	 viewBox="0 0 100 100" style="enable-background:new 0 0 100 100;" xml:space="preserve">
<style type="text/css">
	.st0{fill:none;stroke:#000000;stroke-width:3;stroke-miterlimit:10;}
	.st1{fill:#FFFFFF;stroke:#000000;stroke-width:3;stroke-miterlimit:10;}
</style>
<g id="Capa_1_1_">
	<path class="st0" d="M75.3,34.5v-6.2c0-34.5-50.5-34.5-50.5,0v6.2v10.9h50.5V34.5z"/>
	<path class="st0" d="M79.1,45.4H20.9c-3.9,0-7.1,3.2-7.1,7.1v38.1c0,3.9,3.2,7.1,7.1,7.1h58.3c3.9,0,7.1-3.2,7.1-7.1V52.5
		C86.2,48.6,83,45.4,79.1,45.4z"/>
	<path class="st1" d="M45.8,75.4v5.1c0,0.7,0.7,1.3,1.3,1.3h5.7c0.8,0,1.3-0.7,1.3-1.3L54,75.4c2.2-1.5,3.5-4.4,3.4-7.1
		c-0.3-3.7-3.5-6.7-7.2-6.7c-3.9-0.2-6.9,3.2-7.6,6.9C42.3,71.4,43.3,74.1,45.8,75.4z"/>
</g>
<g id="Capa_2_1_">
</g>
</svg>
