<?xml version="1.0" encoding="utf-8"?>
<!-- Generator: Adobe Illustrator 24.1.1, SVG Export Plug-In . SVG Version: 6.00 Build 0)  -->
<svg version="1.1" id="Capa_1" xmlns="http://www.w3.org/2000/svg" xmlns:xlink="http://www.w3.org/1999/xlink" x="0px" y="0px"
	 viewBox="0 0 100 100" style="enable-background:new 0 0 100 100;" xml:space="preserve">
<style type="text/css">
	.st0{stroke:#000000;stroke-miterlimit:10;}
	.st1{fill:none;stroke:#000000;stroke-width:3;stroke-miterlimit:10;}
	.st2{stroke:#000000;stroke-width:2;stroke-miterlimit:10;}
	.st3{fill:none;stroke:#000000;stroke-width:2;stroke-miterlimit:10;}
</style>
<path class="st0" d="M45.5,50.6"/>
<path class="st1" d="M74,98.2H24.4c-2.2,0-4.1-1.8-4.1-4.1V6.1c0-2.2,1.8-4.1,4.1-4.1H74c2.2,0,4.1,1.8,4.1,4.1v88.1
	C78.1,96.3,76.3,98.2,74,98.2z"/>
<line class="st1" x1="20.4" y1="12.2" x2="78.1" y2="12.2"/>
<line class="st1" x1="20.4" y1="81.2" x2="78.1" y2="81.2"/>
<path class="st2" d="M40.7,89.7c0,0.8,17,0.8,17,0H40.7z"/>
<path class="st3" d="M34.1,39.2v15.5c0,0.6,0.3,1.1,0.8,1.4l13.4,7.8c0.5,0.3,1.1,0.3,1.6,0l13.4-7.8c0.5-0.3,0.8-0.8,0.8-1.4V39.2
	c0-0.6-0.3-1.1-0.8-1.4L50,30.1c-0.5-0.3-1.1-0.3-1.6,0l-13.4,7.8C34.4,38.1,34.1,38.7,34.1,39.2z"/>
<line class="st3" x1="49.1" y1="46" x2="49.1" y2="62.9"/>
<line class="st3" x1="64.3" y1="38.2" x2="49.4" y2="46.9"/>
<line class="st3" x1="34.5" y1="38.4" x2="49.4" y2="47.3"/>
</svg>
