<?xml version="1.0" encoding="utf-8"?>
<!-- Generator: Adobe Illustrator 24.1.1, SVG Export Plug-In . SVG Version: 6.00 Build 0)  -->
<svg version="1.1" id="Capa_1" xmlns="http://www.w3.org/2000/svg" xmlns:xlink="http://www.w3.org/1999/xlink" x="0px" y="0px"
	 viewBox="0 0 100 100" style="enable-background:new 0 0 100 100;" xml:space="preserve">
<style type="text/css">
	.st0{display:none;}
	.st1{fill:none;stroke:#FFFFFF;stroke-width:5;stroke-miterlimit:10;}
	.st2{fill:#FFFFFF;stroke:#FFFFFF;stroke-width:0.5;stroke-miterlimit:10;}
</style>
<g id="Capa_2_1_" class="st0">
	
		<image style="display:inline;overflow:visible;enable-background:new    ;" width="518" height="518" xlink:href="logo-twitter.png"  transform="matrix(0.1467 0 0 0.1467 12 12)">
	</image>
</g>
<g id="Capa_1_1_">
	<circle class="st1" cx="50" cy="50" r="47"/>
	<path class="st2" d="M19.5,73.5c0.6,0,1.8,0.9,2.3,1.2c1.7,0.8,3.5,1.5,5.2,2.2c3.6,1.4,7.5,2.2,11.3,2.4
		c14.6,0.7,29.3-8,35.4-21.3c2.7-5.9,3.8-12,3.8-18.4c0,0,5-3,6-6c0,0-4,2-6,1c0,0,5-4,5-7c0,0-4,3-8,3c-0.4,0-1.7-1.3-2.1-1.5
		c-1.8-1.1-3.8-1.9-5.8-2.3c-5.2-0.9-10.9,1.3-13.8,5.8c-1.9,3-2.2,6.5-1.3,9.9c0,0-13,3-27-13c0,0-6,7,3,17c0,0-1,1-5-1
		c0,0-1,9,10,13c0,0-3,1-6,0c0,0,3,9,13,9C39.5,67.5,36.5,73.5,19.5,73.5z"/>
</g>
</svg>
