<?xml version="1.0" standalone="no"?>
<svg xmlns:xlink="http://www.w3.org/1999/xlink" id="wave" style="transform:rotate(0deg); transition: 0.3s" viewBox="0 0 1440 160" version="1.1" xmlns="http://www.w3.org/2000/svg"><defs><linearGradient id="sw-gradient-0" x1="0" x2="0" y1="1" y2="0"><stop stop-color="rgba(0, 0, 0, 1)" offset="0%"/><stop stop-color="rgba(0, 165, 207, 1)" offset="100%"/></linearGradient></defs><path style="transform:translate(0, 0px); opacity:1" fill="url(#sw-gradient-0)" d="M0,64L60,61.3C120,59,240,53,360,66.7C480,80,600,112,720,122.7C840,133,960,123,1080,101.3C1200,80,1320,48,1440,45.3C1560,43,1680,69,1800,82.7C1920,96,2040,96,2160,88C2280,80,2400,64,2520,50.7C2640,37,2760,27,2880,34.7C3000,43,3120,69,3240,88C3360,107,3480,117,3600,117.3C3720,117,3840,107,3960,98.7C4080,91,4200,85,4320,72C4440,59,4560,37,4680,34.7C4800,32,4920,48,5040,48C5160,48,5280,32,5400,32C5520,32,5640,48,5760,66.7C5880,85,6000,107,6120,98.7C6240,91,6360,53,6480,56C6600,59,6720,101,6840,112C6960,123,7080,101,7200,98.7C7320,96,7440,112,7560,122.7C7680,133,7800,139,7920,133.3C8040,128,8160,112,8280,104C8400,96,8520,96,8580,96L8640,96L8640,160L8580,160C8520,160,8400,160,8280,160C8160,160,8040,160,7920,160C7800,160,7680,160,7560,160C7440,160,7320,160,7200,160C7080,160,6960,160,6840,160C6720,160,6600,160,6480,160C6360,160,6240,160,6120,160C6000,160,5880,160,5760,160C5640,160,5520,160,5400,160C5280,160,5160,160,5040,160C4920,160,4800,160,4680,160C4560,160,4440,160,4320,160C4200,160,4080,160,3960,160C3840,160,3720,160,3600,160C3480,160,3360,160,3240,160C3120,160,3000,160,2880,160C2760,160,2640,160,2520,160C2400,160,2280,160,2160,160C2040,160,1920,160,1800,160C1680,160,1560,160,1440,160C1320,160,1200,160,1080,160C960,160,840,160,720,160C600,160,480,160,360,160C240,160,120,160,60,160L0,160Z"/><defs><linearGradient id="sw-gradient-1" x1="0" x2="0" y1="1" y2="0"><stop stop-color="rgba(0, 165, 207, 1)" offset="0%"/><stop stop-color="rgba(0, 165, 207, 1)" offset="100%"/></linearGradient></defs><path style="transform:translate(0, 50px); opacity:0.9" fill="url(#sw-gradient-1)" d="M0,144L60,128C120,112,240,80,360,56C480,32,600,16,720,26.7C840,37,960,75,1080,80C1200,85,1320,59,1440,40C1560,21,1680,11,1800,13.3C1920,16,2040,32,2160,53.3C2280,75,2400,101,2520,106.7C2640,112,2760,96,2880,88C3000,80,3120,80,3240,69.3C3360,59,3480,37,3600,48C3720,59,3840,101,3960,101.3C4080,101,4200,59,4320,37.3C4440,16,4560,16,4680,16C4800,16,4920,16,5040,24C5160,32,5280,48,5400,66.7C5520,85,5640,107,5760,104C5880,101,6000,75,6120,77.3C6240,80,6360,112,6480,104C6600,96,6720,48,6840,24C6960,0,7080,0,7200,2.7C7320,5,7440,11,7560,34.7C7680,59,7800,101,7920,98.7C8040,96,8160,48,8280,45.3C8400,43,8520,85,8580,106.7L8640,128L8640,160L8580,160C8520,160,8400,160,8280,160C8160,160,8040,160,7920,160C7800,160,7680,160,7560,160C7440,160,7320,160,7200,160C7080,160,6960,160,6840,160C6720,160,6600,160,6480,160C6360,160,6240,160,6120,160C6000,160,5880,160,5760,160C5640,160,5520,160,5400,160C5280,160,5160,160,5040,160C4920,160,4800,160,4680,160C4560,160,4440,160,4320,160C4200,160,4080,160,3960,160C3840,160,3720,160,3600,160C3480,160,3360,160,3240,160C3120,160,3000,160,2880,160C2760,160,2640,160,2520,160C2400,160,2280,160,2160,160C2040,160,1920,160,1800,160C1680,160,1560,160,1440,160C1320,160,1200,160,1080,160C960,160,840,160,720,160C600,160,480,160,360,160C240,160,120,160,60,160L0,160Z"/></svg>