<?xml version="1.0" standalone="no"?>
<svg xmlns:xlink="http://www.w3.org/1999/xlink" id="wave" style="transform:rotate(0deg); transition: 0.3s" viewBox="0 0 1440 180" version="1.1" xmlns="http://www.w3.org/2000/svg"><defs><linearGradient id="sw-gradient-0" x1="0" x2="0" y1="1" y2="0"><stop stop-color="rgba(0, 0, 0, 1)" offset="0%"/><stop stop-color="rgba(0, 165, 207, 1)" offset="100%"/></linearGradient></defs><path style="transform:translate(0, 0px); opacity:1" fill="url(#sw-gradient-0)" d="M0,18L80,42C160,66,320,114,480,126C640,138,800,114,960,99C1120,84,1280,78,1440,69C1600,60,1760,48,1920,60C2080,72,2240,108,2400,120C2560,132,2720,120,2880,108C3040,96,3200,84,3360,75C3520,66,3680,60,3840,48C4000,36,4160,18,4320,30C4480,42,4640,84,4800,99C4960,114,5120,102,5280,102C5440,102,5600,114,5760,114C5920,114,6080,102,6240,90C6400,78,6560,66,6720,57C6880,48,7040,42,7200,60C7360,78,7520,120,7680,129C7840,138,8000,114,8160,114C8320,114,8480,138,8640,129C8800,120,8960,78,9120,51C9280,24,9440,12,9600,18C9760,24,9920,48,10080,54C10240,60,10400,48,10560,45C10720,42,10880,48,11040,48C11200,48,11360,42,11440,39L11520,36L11520,180L11440,180C11360,180,11200,180,11040,180C10880,180,10720,180,10560,180C10400,180,10240,180,10080,180C9920,180,9760,180,9600,180C9440,180,9280,180,9120,180C8960,180,8800,180,8640,180C8480,180,8320,180,8160,180C8000,180,7840,180,7680,180C7520,180,7360,180,7200,180C7040,180,6880,180,6720,180C6560,180,6400,180,6240,180C6080,180,5920,180,5760,180C5600,180,5440,180,5280,180C5120,180,4960,180,4800,180C4640,180,4480,180,4320,180C4160,180,4000,180,3840,180C3680,180,3520,180,3360,180C3200,180,3040,180,2880,180C2720,180,2560,180,2400,180C2240,180,2080,180,1920,180C1760,180,1600,180,1440,180C1280,180,1120,180,960,180C800,180,640,180,480,180C320,180,160,180,80,180L0,180Z"/><defs><linearGradient id="sw-gradient-1" x1="0" x2="0" y1="1" y2="0"><stop stop-color="rgba(0, 165, 207, 1)" offset="0%"/><stop stop-color="rgba(0, 165, 207, 1)" offset="100%"/></linearGradient></defs><path style="transform:translate(0, 50px); opacity:0.9" fill="url(#sw-gradient-1)" d="M0,18L80,18C160,18,320,18,480,30C640,42,800,66,960,81C1120,96,1280,102,1440,108C1600,114,1760,120,1920,114C2080,108,2240,90,2400,78C2560,66,2720,60,2880,75C3040,90,3200,126,3360,141C3520,156,3680,150,3840,129C4000,108,4160,72,4320,48C4480,24,4640,12,4800,21C4960,30,5120,60,5280,60C5440,60,5600,30,5760,21C5920,12,6080,24,6240,36C6400,48,6560,60,6720,81C6880,102,7040,132,7200,147C7360,162,7520,162,7680,156C7840,150,8000,138,8160,120C8320,102,8480,78,8640,66C8800,54,8960,54,9120,60C9280,66,9440,78,9600,72C9760,66,9920,42,10080,36C10240,30,10400,42,10560,57C10720,72,10880,90,11040,96C11200,102,11360,96,11440,93L11520,90L11520,180L11440,180C11360,180,11200,180,11040,180C10880,180,10720,180,10560,180C10400,180,10240,180,10080,180C9920,180,9760,180,9600,180C9440,180,9280,180,9120,180C8960,180,8800,180,8640,180C8480,180,8320,180,8160,180C8000,180,7840,180,7680,180C7520,180,7360,180,7200,180C7040,180,6880,180,6720,180C6560,180,6400,180,6240,180C6080,180,5920,180,5760,180C5600,180,5440,180,5280,180C5120,180,4960,180,4800,180C4640,180,4480,180,4320,180C4160,180,4000,180,3840,180C3680,180,3520,180,3360,180C3200,180,3040,180,2880,180C2720,180,2560,180,2400,180C2240,180,2080,180,1920,180C1760,180,1600,180,1440,180C1280,180,1120,180,960,180C800,180,640,180,480,180C320,180,160,180,80,180L0,180Z"/></svg>