<?xml version="1.0" standalone="no"?>
<svg xmlns:xlink="http://www.w3.org/1999/xlink" id="wave" style="transform:rotate(0deg); transition: 0.3s" viewBox="0 0 1440 200" version="1.1" xmlns="http://www.w3.org/2000/svg"><defs><linearGradient id="sw-gradient-0" x1="0" x2="0" y1="1" y2="0"><stop stop-color="rgba(0, 0, 0, 1)" offset="0%"/><stop stop-color="rgba(0, 165, 207, 1)" offset="100%"/></linearGradient></defs><path style="transform:translate(0, 0px); opacity:1" fill="url(#sw-gradient-0)" d="M0,0L60,13.3C120,27,240,53,360,76.7C480,100,600,120,720,126.7C840,133,960,127,1080,116.7C1200,107,1320,93,1440,83.3C1560,73,1680,67,1800,83.3C1920,100,2040,140,2160,156.7C2280,173,2400,167,2520,156.7C2640,147,2760,133,2880,133.3C3000,133,3120,147,3240,146.7C3360,147,3480,133,3600,116.7C3720,100,3840,80,3960,86.7C4080,93,4200,127,4320,126.7C4440,127,4560,93,4680,80C4800,67,4920,73,5040,63.3C5160,53,5280,27,5400,23.3C5520,20,5640,40,5760,60C5880,80,6000,100,6120,96.7C6240,93,6360,67,6480,70C6600,73,6720,107,6840,130C6960,153,7080,167,7200,173.3C7320,180,7440,180,7560,153.3C7680,127,7800,73,7920,43.3C8040,13,8160,7,8280,6.7C8400,7,8520,13,8580,16.7L8640,20L8640,200L8580,200C8520,200,8400,200,8280,200C8160,200,8040,200,7920,200C7800,200,7680,200,7560,200C7440,200,7320,200,7200,200C7080,200,6960,200,6840,200C6720,200,6600,200,6480,200C6360,200,6240,200,6120,200C6000,200,5880,200,5760,200C5640,200,5520,200,5400,200C5280,200,5160,200,5040,200C4920,200,4800,200,4680,200C4560,200,4440,200,4320,200C4200,200,4080,200,3960,200C3840,200,3720,200,3600,200C3480,200,3360,200,3240,200C3120,200,3000,200,2880,200C2760,200,2640,200,2520,200C2400,200,2280,200,2160,200C2040,200,1920,200,1800,200C1680,200,1560,200,1440,200C1320,200,1200,200,1080,200C960,200,840,200,720,200C600,200,480,200,360,200C240,200,120,200,60,200L0,200Z"/><defs><linearGradient id="sw-gradient-1" x1="0" x2="0" y1="1" y2="0"><stop stop-color="rgba(0, 165, 207, 1)" offset="0%"/><stop stop-color="rgba(0, 165, 207, 1)" offset="100%"/></linearGradient></defs><path style="transform:translate(0, 50px); opacity:0.9" fill="url(#sw-gradient-1)" d="M0,60L60,70C120,80,240,100,360,96.7C480,93,600,67,720,50C840,33,960,27,1080,36.7C1200,47,1320,73,1440,86.7C1560,100,1680,100,1800,86.7C1920,73,2040,47,2160,36.7C2280,27,2400,33,2520,40C2640,47,2760,53,2880,56.7C3000,60,3120,60,3240,80C3360,100,3480,140,3600,156.7C3720,173,3840,167,3960,166.7C4080,167,4200,173,4320,153.3C4440,133,4560,87,4680,66.7C4800,47,4920,53,5040,60C5160,67,5280,73,5400,86.7C5520,100,5640,120,5760,116.7C5880,113,6000,87,6120,80C6240,73,6360,87,6480,103.3C6600,120,6720,140,6840,136.7C6960,133,7080,107,7200,103.3C7320,100,7440,120,7560,110C7680,100,7800,60,7920,50C8040,40,8160,60,8280,63.3C8400,67,8520,53,8580,46.7L8640,40L8640,200L8580,200C8520,200,8400,200,8280,200C8160,200,8040,200,7920,200C7800,200,7680,200,7560,200C7440,200,7320,200,7200,200C7080,200,6960,200,6840,200C6720,200,6600,200,6480,200C6360,200,6240,200,6120,200C6000,200,5880,200,5760,200C5640,200,5520,200,5400,200C5280,200,5160,200,5040,200C4920,200,4800,200,4680,200C4560,200,4440,200,4320,200C4200,200,4080,200,3960,200C3840,200,3720,200,3600,200C3480,200,3360,200,3240,200C3120,200,3000,200,2880,200C2760,200,2640,200,2520,200C2400,200,2280,200,2160,200C2040,200,1920,200,1800,200C1680,200,1560,200,1440,200C1320,200,1200,200,1080,200C960,200,840,200,720,200C600,200,480,200,360,200C240,200,120,200,60,200L0,200Z"/></svg>