<?xml version="1.0" standalone="no"?>
<svg xmlns:xlink="http://www.w3.org/1999/xlink" id="wave" style="transform:rotate(0deg); transition: 0.3s" viewBox="0 0 1440 230" version="1.1" xmlns="http://www.w3.org/2000/svg"><defs><linearGradient id="sw-gradient-0" x1="0" x2="0" y1="1" y2="0"><stop stop-color="rgba(0, 0, 0, 1)" offset="0%"/><stop stop-color="rgba(0, 165, 207, 1)" offset="100%"/></linearGradient></defs><path style="transform:translate(0, 0px); opacity:1" fill="url(#sw-gradient-0)" d="M0,207L80,199.3C160,192,320,176,480,164.8C640,153,800,146,960,141.8C1120,138,1280,138,1440,138C1600,138,1760,138,1920,130.3C2080,123,2240,107,2400,103.5C2560,100,2720,107,2880,103.5C3040,100,3200,84,3360,92C3520,100,3680,130,3840,134.2C4000,138,4160,115,4320,122.7C4480,130,4640,169,4800,161C4960,153,5120,100,5280,95.8C5440,92,5600,138,5760,164.8C5920,192,6080,199,6240,199.3C6400,199,6560,192,6720,191.7C6880,192,7040,199,7200,176.3C7360,153,7520,100,7680,92C7840,84,8000,123,8160,149.5C8320,176,8480,192,8640,176.3C8800,161,8960,115,9120,115C9280,115,9440,161,9600,172.5C9760,184,9920,161,10080,157.2C10240,153,10400,169,10560,180.2C10720,192,10880,199,11040,187.8C11200,176,11360,146,11440,130.3L11520,115L11520,230L11440,230C11360,230,11200,230,11040,230C10880,230,10720,230,10560,230C10400,230,10240,230,10080,230C9920,230,9760,230,9600,230C9440,230,9280,230,9120,230C8960,230,8800,230,8640,230C8480,230,8320,230,8160,230C8000,230,7840,230,7680,230C7520,230,7360,230,7200,230C7040,230,6880,230,6720,230C6560,230,6400,230,6240,230C6080,230,5920,230,5760,230C5600,230,5440,230,5280,230C5120,230,4960,230,4800,230C4640,230,4480,230,4320,230C4160,230,4000,230,3840,230C3680,230,3520,230,3360,230C3200,230,3040,230,2880,230C2720,230,2560,230,2400,230C2240,230,2080,230,1920,230C1760,230,1600,230,1440,230C1280,230,1120,230,960,230C800,230,640,230,480,230C320,230,160,230,80,230L0,230Z"/><defs><linearGradient id="sw-gradient-1" x1="0" x2="0" y1="1" y2="0"><stop stop-color="rgba(0, 165, 207, 1)" offset="0%"/><stop stop-color="rgba(0, 165, 207, 1)" offset="100%"/></linearGradient></defs><path style="transform:translate(0, 50px); opacity:0.9" fill="url(#sw-gradient-1)" d="M0,115L80,111.2C160,107,320,100,480,103.5C640,107,800,123,960,126.5C1120,130,1280,123,1440,99.7C1600,77,1760,38,1920,19.2C2080,0,2240,0,2400,34.5C2560,69,2720,138,2880,153.3C3040,169,3200,130,3360,103.5C3520,77,3680,61,3840,65.2C4000,69,4160,92,4320,115C4480,138,4640,161,4800,172.5C4960,184,5120,184,5280,176.3C5440,169,5600,153,5760,153.3C5920,153,6080,169,6240,180.2C6400,192,6560,199,6720,180.2C6880,161,7040,115,7200,84.3C7360,54,7520,38,7680,53.7C7840,69,8000,115,8160,122.7C8320,130,8480,100,8640,88.2C8800,77,8960,84,9120,103.5C9280,123,9440,153,9600,161C9760,169,9920,153,10080,126.5C10240,100,10400,61,10560,72.8C10720,84,10880,146,11040,157.2C11200,169,11360,130,11440,111.2L11520,92L11520,230L11440,230C11360,230,11200,230,11040,230C10880,230,10720,230,10560,230C10400,230,10240,230,10080,230C9920,230,9760,230,9600,230C9440,230,9280,230,9120,230C8960,230,8800,230,8640,230C8480,230,8320,230,8160,230C8000,230,7840,230,7680,230C7520,230,7360,230,7200,230C7040,230,6880,230,6720,230C6560,230,6400,230,6240,230C6080,230,5920,230,5760,230C5600,230,5440,230,5280,230C5120,230,4960,230,4800,230C4640,230,4480,230,4320,230C4160,230,4000,230,3840,230C3680,230,3520,230,3360,230C3200,230,3040,230,2880,230C2720,230,2560,230,2400,230C2240,230,2080,230,1920,230C1760,230,1600,230,1440,230C1280,230,1120,230,960,230C800,230,640,230,480,230C320,230,160,230,80,230L0,230Z"/></svg>