<?xml version="1.0" standalone="no"?>
<svg xmlns:xlink="http://www.w3.org/1999/xlink" id="wave" style="transform:rotate(0deg); transition: 0.3s" viewBox="0 0 1440 160" version="1.1" xmlns="http://www.w3.org/2000/svg"><defs><linearGradient id="sw-gradient-0" x1="0" x2="0" y1="1" y2="0"><stop stop-color="rgba(0, 0, 0, 1)" offset="0%"/><stop stop-color="rgba(0, 165, 207, 1)" offset="100%"/></linearGradient></defs><path style="transform:translate(0, 0px); opacity:1" fill="url(#sw-gradient-0)" d="M0,80L80,82.7C160,85,320,91,480,88C640,85,800,75,960,64C1120,53,1280,43,1440,40C1600,37,1760,43,1920,53.3C2080,64,2240,80,2400,96C2560,112,2720,128,2880,125.3C3040,123,3200,101,3360,90.7C3520,80,3680,80,3840,82.7C4000,85,4160,91,4320,88C4480,85,4640,75,4800,74.7C4960,75,5120,85,5280,93.3C5440,101,5600,107,5760,90.7C5920,75,6080,37,6240,24C6400,11,6560,21,6720,37.3C6880,53,7040,75,7200,85.3C7360,96,7520,96,7680,96C7840,96,8000,96,8160,104C8320,112,8480,128,8640,130.7C8800,133,8960,123,9120,120C9280,117,9440,123,9600,104C9760,85,9920,43,10080,34.7C10240,27,10400,53,10560,56C10720,59,10880,37,11040,45.3C11200,53,11360,91,11440,109.3L11520,128L11520,160L11440,160C11360,160,11200,160,11040,160C10880,160,10720,160,10560,160C10400,160,10240,160,10080,160C9920,160,9760,160,9600,160C9440,160,9280,160,9120,160C8960,160,8800,160,8640,160C8480,160,8320,160,8160,160C8000,160,7840,160,7680,160C7520,160,7360,160,7200,160C7040,160,6880,160,6720,160C6560,160,6400,160,6240,160C6080,160,5920,160,5760,160C5600,160,5440,160,5280,160C5120,160,4960,160,4800,160C4640,160,4480,160,4320,160C4160,160,4000,160,3840,160C3680,160,3520,160,3360,160C3200,160,3040,160,2880,160C2720,160,2560,160,2400,160C2240,160,2080,160,1920,160C1760,160,1600,160,1440,160C1280,160,1120,160,960,160C800,160,640,160,480,160C320,160,160,160,80,160L0,160Z"/><defs><linearGradient id="sw-gradient-1" x1="0" x2="0" y1="1" y2="0"><stop stop-color="rgba(0, 165, 207, 1)" offset="0%"/><stop stop-color="rgba(0, 165, 207, 1)" offset="100%"/></linearGradient></defs><path style="transform:translate(0, 50px); opacity:0.9" fill="url(#sw-gradient-1)" d="M0,0L80,0C160,0,320,0,480,10.7C640,21,800,43,960,48C1120,53,1280,43,1440,32C1600,21,1760,11,1920,21.3C2080,32,2240,64,2400,80C2560,96,2720,96,2880,101.3C3040,107,3200,117,3360,106.7C3520,96,3680,64,3840,48C4000,32,4160,32,4320,50.7C4480,69,4640,107,4800,125.3C4960,144,5120,144,5280,122.7C5440,101,5600,59,5760,58.7C5920,59,6080,101,6240,104C6400,107,6560,69,6720,69.3C6880,69,7040,107,7200,114.7C7360,123,7520,101,7680,96C7840,91,8000,101,8160,88C8320,75,8480,37,8640,29.3C8800,21,8960,43,9120,53.3C9280,64,9440,64,9600,53.3C9760,43,9920,21,10080,10.7C10240,0,10400,0,10560,18.7C10720,37,10880,75,11040,80C11200,85,11360,59,11440,45.3L11520,32L11520,160L11440,160C11360,160,11200,160,11040,160C10880,160,10720,160,10560,160C10400,160,10240,160,10080,160C9920,160,9760,160,9600,160C9440,160,9280,160,9120,160C8960,160,8800,160,8640,160C8480,160,8320,160,8160,160C8000,160,7840,160,7680,160C7520,160,7360,160,7200,160C7040,160,6880,160,6720,160C6560,160,6400,160,6240,160C6080,160,5920,160,5760,160C5600,160,5440,160,5280,160C5120,160,4960,160,4800,160C4640,160,4480,160,4320,160C4160,160,4000,160,3840,160C3680,160,3520,160,3360,160C3200,160,3040,160,2880,160C2720,160,2560,160,2400,160C2240,160,2080,160,1920,160C1760,160,1600,160,1440,160C1280,160,1120,160,960,160C800,160,640,160,480,160C320,160,160,160,80,160L0,160Z"/></svg>