<?xml version="1.0" standalone="no"?>
<svg xmlns:xlink="http://www.w3.org/1999/xlink" id="wave" style="transform:rotate(0deg); transition: 0.3s" viewBox="0 0 1440 200" version="1.1" xmlns="http://www.w3.org/2000/svg"><defs><linearGradient id="sw-gradient-0" x1="0" x2="0" y1="1" y2="0"><stop stop-color="rgba(0, 0, 0, 1)" offset="0%"/><stop stop-color="rgba(0, 165, 207, 1)" offset="100%"/></linearGradient></defs><path style="transform:translate(0, 0px); opacity:1" fill="url(#sw-gradient-0)" d="M0,20L120,43.3C240,67,480,113,720,130C960,147,1200,133,1440,120C1680,107,1920,93,2160,86.7C2400,80,2640,80,2880,86.7C3120,93,3360,107,3600,113.3C3840,120,4080,120,4320,123.3C4560,127,4800,133,5040,126.7C5280,120,5520,100,5760,80C6000,60,6240,40,6480,50C6720,60,6960,100,7200,116.7C7440,133,7680,127,7920,130C8160,133,8400,147,8640,146.7C8880,147,9120,133,9360,133.3C9600,133,9840,147,10080,136.7C10320,127,10560,93,10800,96.7C11040,100,11280,140,11520,150C11760,160,12000,140,12240,133.3C12480,127,12720,133,12960,136.7C13200,140,13440,140,13680,123.3C13920,107,14160,73,14400,70C14640,67,14880,93,15120,90C15360,87,15600,53,15840,46.7C16080,40,16320,60,16560,70C16800,80,17040,80,17160,80L17280,80L17280,200L17160,200C17040,200,16800,200,16560,200C16320,200,16080,200,15840,200C15600,200,15360,200,15120,200C14880,200,14640,200,14400,200C14160,200,13920,200,13680,200C13440,200,13200,200,12960,200C12720,200,12480,200,12240,200C12000,200,11760,200,11520,200C11280,200,11040,200,10800,200C10560,200,10320,200,10080,200C9840,200,9600,200,9360,200C9120,200,8880,200,8640,200C8400,200,8160,200,7920,200C7680,200,7440,200,7200,200C6960,200,6720,200,6480,200C6240,200,6000,200,5760,200C5520,200,5280,200,5040,200C4800,200,4560,200,4320,200C4080,200,3840,200,3600,200C3360,200,3120,200,2880,200C2640,200,2400,200,2160,200C1920,200,1680,200,1440,200C1200,200,960,200,720,200C480,200,240,200,120,200L0,200Z"/><defs><linearGradient id="sw-gradient-1" x1="0" x2="0" y1="1" y2="0"><stop stop-color="rgba(0, 165, 207, 1)" offset="0%"/><stop stop-color="rgba(0, 165, 207, 1)" offset="100%"/></linearGradient></defs><path style="transform:translate(0, 50px); opacity:0.9" fill="url(#sw-gradient-1)" d="M0,120L120,103.3C240,87,480,53,720,33.3C960,13,1200,7,1440,30C1680,53,1920,107,2160,113.3C2400,120,2640,80,2880,60C3120,40,3360,40,3600,50C3840,60,4080,80,4320,86.7C4560,93,4800,87,5040,93.3C5280,100,5520,120,5760,106.7C6000,93,6240,47,6480,23.3C6720,0,6960,0,7200,26.7C7440,53,7680,107,7920,130C8160,153,8400,147,8640,143.3C8880,140,9120,140,9360,130C9600,120,9840,100,10080,93.3C10320,87,10560,93,10800,83.3C11040,73,11280,47,11520,40C11760,33,12000,47,12240,56.7C12480,67,12720,73,12960,63.3C13200,53,13440,27,13680,30C13920,33,14160,67,14400,86.7C14640,107,14880,113,15120,123.3C15360,133,15600,147,15840,146.7C16080,147,16320,133,16560,116.7C16800,100,17040,80,17160,70L17280,60L17280,200L17160,200C17040,200,16800,200,16560,200C16320,200,16080,200,15840,200C15600,200,15360,200,15120,200C14880,200,14640,200,14400,200C14160,200,13920,200,13680,200C13440,200,13200,200,12960,200C12720,200,12480,200,12240,200C12000,200,11760,200,11520,200C11280,200,11040,200,10800,200C10560,200,10320,200,10080,200C9840,200,9600,200,9360,200C9120,200,8880,200,8640,200C8400,200,8160,200,7920,200C7680,200,7440,200,7200,200C6960,200,6720,200,6480,200C6240,200,6000,200,5760,200C5520,200,5280,200,5040,200C4800,200,4560,200,4320,200C4080,200,3840,200,3600,200C3360,200,3120,200,2880,200C2640,200,2400,200,2160,200C1920,200,1680,200,1440,200C1200,200,960,200,720,200C480,200,240,200,120,200L0,200Z"/></svg>